<svg width="176" height="32" viewBox="0 0 176 32" fill="none" xmlns="http://www.w3.org/2000/svg">
<path d="M53.9654 0V32H47.7456L37.7017 11.978V32H31.5918V0H37.7237L47.8555 20.2418V0H53.9654Z" fill="#2FE48D"/>
<path d="M69.1083 25.1648L75.1742 0H82.1193L72.8445 32H68.1632L69.1083 25.1648ZM63.9215 0L69.9654 25.1648L70.9544 32H66.2511L57.0423 0H63.9215Z" fill="#2FE48D"/>
<path d="M91.8555 0V32H85.4599V0H91.8555Z" fill="#2FE48D"/>
<path d="M115.702 26.6813V32H101.79V26.6813H115.702ZM103.79 0V32H97.35V0H103.79ZM113.834 12.967V18.1319H101.79V12.967H113.834ZM115.658 0V5.34066H101.79V0H115.658Z" fill="#2FE48D"/>
<path d="M141.834 0V32H135.614L125.57 11.978V32H119.46V0H125.592L135.724 20.2418V0H141.834Z" fill="#2FE48D"/>
<path d="M159.108 0V32H152.713V0H159.108ZM158.942 0V5.34066H144.91V0H158.942Z" fill="#2FE48D"/>
<path fill-rule="evenodd" clip-rule="evenodd" d="M27.9822 0.0182495L22.226 0.018262V0.365564L21.8904 0.018262L4.7998 31.9998L11.2557 31.9997L22.226 11.0893V31.9998H27.9822V0.0182495Z" fill="url(#paint0_linear_501_317)"/>
<path d="M21.8921 0.018158H28.3222V31.9997H21.8921V0.018158Z" fill="url(#paint1_linear_501_317)"/>
<path d="M161.661 2.72559C161.661 4.22086 162.873 5.43301 164.369 5.43301C165.864 5.43301 167.076 4.22086 167.076 2.72559C167.076 1.23031 165.864 0.018158 164.369 0.018158C162.873 0.018158 161.661 1.23031 161.661 2.72559Z" fill="url(#paint2_linear_501_317)"/>
<defs>
<linearGradient id="paint0_linear_501_317" x1="14.3112" y1="5.8473" x2="-0.0877152" y2="33.195" gradientUnits="userSpaceOnUse">
<stop stop-color="#2FE48D"/>
<stop offset="1" stop-color="#2FE48D" stop-opacity="0"/>
</linearGradient>
<linearGradient id="paint1_linear_501_317" x1="26.3652" y1="17.0854" x2="28.9598" y2="16.2927" gradientUnits="userSpaceOnUse">
<stop stop-color="#2FE48D"/>
<stop offset="1" stop-color="#2FE48D"/>
</linearGradient>
<linearGradient id="paint2_linear_501_317" x1="164.855" y1="1.00509" x2="162.899" y2="7.08721" gradientUnits="userSpaceOnUse">
<stop stop-color="#2FE48D"/>
<stop offset="1" stop-color="#2FE48D" stop-opacity="0"/>
</linearGradient>
</defs>
</svg>
